<?xml version="1.0" encoding="UTF-8"?>
<svg width="357px" height="83px" viewBox="0 0 357 83" version="1.1" xmlns="http://www.w3.org/2000/svg" xmlns:xlink="http://www.w3.org/1999/xlink">
    <title>Sin título-1</title>
    <defs>
        <linearGradient x1="0.0112584081%" y1="49.9814929%" x2="100.008439%" y2="49.9814929%" id="linearGradient-1">
            <stop stop-color="#A08838" offset="0%"></stop>
            <stop stop-color="#E3C79D" offset="30%"></stop>
            <stop stop-color="#AC944A" offset="100%"></stop>
        </linearGradient>
    </defs>
    <g id="Page-1" stroke="none" stroke-width="1" fill="none" fill-rule="evenodd">
        <g id="Sin-título-1" fill="url(#linearGradient-1)" fill-rule="nonzero">
            <path d="M75.22,44.58 C75.31,45.46 75.22,45.43 75.32,45.94 C76.32,65.49 62.74,74.72 46.32,75.4 C43.8,77.75 41.03,79.81 41.03,79.81 C41.03,79.81 38.25,77.75 35.73,75.4 C19.28,74.72 5.66,65.49 6.73,45.94 C6.79,45.43 6.73,45.46 6.82,44.58 C5.88,43.58 4.32,41.96 3.5,41.13 C9.39,35.01 16.28,21 6.72,8.3 L8.72,5.62 C10.7033591,6.31655292 12.7879641,6.68144326 14.89,6.7 C20.37,6.7 24.12,6.16 28.72,3.11 C36.0131467,8.57500311 46.0368533,8.57500311 53.33,3.11 C57.93,6.16 61.67,6.7 67.16,6.7 C69.2620359,6.68144326 71.3466409,6.31655292 73.33,5.62 L75.33,8.3 C65.77,21 72.65,35.01 78.55,41.13 C77.73,41.96 76.17,43.59 75.23,44.58 M76.72,9.35 L77.44,8.35 L73.98,3.51 L72.74,3.93 C70.9417283,4.57166497 69.0492143,4.90961391 67.14,4.93 C61.91,4.93 58.49,4.43 54.27,1.63 L53.27,0.98 L52.27,1.66 C45.5724637,6.71178339 36.3375363,6.71178339 29.64,1.66 L28.64,0.98 L27.64,1.63 C23.43,4.43 20.01,4.93 14.78,4.93 C12.8707857,4.90961391 10.9782717,4.57166497 9.18,3.93 L7.94,3.51 L4.52,8.39 L5.24,9.39 C14.39,21.54 7.24,34.7 2.15,39.96 L0.96,41.2 L2.17,42.41 C2.82,43.06 3.98,44.26 4.93,45.26 L4.93,45.42 C4.93720649,45.5398918 4.93720649,45.6601082 4.93,45.78 L4.93,45.89 C4.47,54.66 6.75,61.89 11.73,67.35 C17,73.15 25.24,76.61 34.99,77.15 C37.4,79.35 39.85,81.15 39.99,81.25 L40.99,82.03 L41.99,81.25 C42.1,81.17 44.54,79.35 46.99,77.15 C56.74,76.61 64.99,73.15 70.25,67.35 C75.25,61.88 77.51,54.66 77.05,45.89 L77.05,45.78 C77.0427935,45.6601082 77.0427935,45.5398918 77.05,45.42 C77.0546465,45.3667679 77.0546465,45.3132321 77.05,45.26 C78.05,44.26 79.16,43.06 79.82,42.41 L81.03,41.2 L79.84,39.96 C74.77,34.7 67.6,21.54 76.75,9.39 M18.32,45.39 L27.41,45.39 L27.41,70.88 C24.1411396,70.0384938 21.0582565,68.5937103 18.32,66.62 L18.32,45.39 Z M35.82,52.09 C35.67,52.69 35.52,53.22 35.4,53.76 C34.98,55.7 34.98,58.61 36.56,60.05 C35.8906231,61.1356715 34.6435261,61.7239248 33.38,61.55 C32.0245165,58.2032013 33.014844,54.3636528 35.82,52.09 M40.28,50.28 C39.8474076,50.742222 39.6264723,51.3634971 39.6700943,51.9950686 C39.7137164,52.62664 40.017968,53.2116409 40.51,53.61 C40.2647824,53.7912645 40.0575309,54.0189014 39.9,54.28 C38.9750784,55.7108861 39.3510756,57.617413 40.75,58.59 C40.4930331,59.6420697 39.5529816,60.3842156 38.47,60.39 C36.57,60.14 35.67,58.39 35.64,56.2 C35.7127839,54.6497985 35.9781554,53.1146746 36.43,51.63 C37.5783208,50.8612641 38.9030592,50.3967454 40.28,50.28 M36.49,45.39 L45.52,45.39 L45.52,51.03 C42.7341985,49.3096264 39.2158015,49.3096264 36.43,51.03 L36.49,45.39 Z M49.21,57.97 C48.3800092,56.4535843 47.1527799,55.1917852 45.66,54.32 C44.23,53.51 42.34,52.78 40.98,53.32 C40.4509871,52.9733976 40.1398364,52.3770142 40.15819,51.7448345 C40.1765436,51.1126549 40.5217698,50.5353276 41.07,50.22 C45.3905966,50.2540584 48.9473161,53.6272617 49.21,57.94 M54.66,45.36 L63.75,45.36 L63.75,66.59 C61.0117435,68.5637103 57.9288604,70.0084938 54.66,70.85 L54.66,45.36 Z M48.52,61.68 C48.2819364,60.9955383 47.7749191,60.4378356 47.1161672,60.135829 C46.4574153,59.8338224 45.7039618,59.8136588 45.03,60.08 C45.0196803,59.7358626 44.9450632,59.3966939 44.81,59.08 C44.5208819,58.3514892 43.9019164,57.8043527 43.1434297,57.6068301 C42.3849429,57.4093075 41.5777294,57.5850432 40.97,58.08 C39.8046876,57.250231 39.5004091,55.6494614 40.28,54.45 C41.28,52.94 43.41,53.54 45.39,54.65 C47.1375788,55.6497221 48.4735617,57.2373093 49.16,59.13 C49.0876694,60.0092991 48.8714604,60.870757 48.52,61.68 M40.97,66.6800012 C39.3347166,66.6808701 37.7364287,66.1933749 36.38,65.28 C38.2857586,65.2273932 40.1566221,64.7562633 41.86,63.9 C43.25,63.08 44.72,62.04 44.99,60.67 C45.6378293,60.3268524 46.4151196,60.3339958 47.0565328,60.6889918 C47.697946,61.0439878 48.1167573,61.6988377 48.17,62.43 C46.721892,65.0510198 43.9644548,66.6786737 40.97,66.6800012 M45.55,72.25 L45.07,72.25 C42.79,72.25 40.18,72.25 37.31,72.25 L36.95,72.25 L36.46,72.25 L36.46,65.94 C39.2497323,67.6464715 42.7602677,67.6464715 45.55,65.94 L45.55,72.25 Z M33.55,62.05 L33.75,62.05 C35.031852,62.0915146 36.2348359,61.4325553 36.89,60.33 C37.3298219,60.6140759 37.8296264,60.7920885 38.35,60.85 C39.7239805,60.8843682 40.9211994,59.9198244 41.18,58.57 C41.6688782,58.1535379 42.328009,57.9971761 42.9518578,58.1496725 C43.5757067,58.3021689 44.0883754,58.7449705 44.33,59.34 C45.05,61.07 43.53,62.34 41.58,63.47 C39.7587666,64.3678672 37.7503053,64.8202851 35.72,64.79 C34.8049663,64.042364 34.0643582,63.1038054 33.55,62.04 M9.55,45.09 C9.54007209,45.2913372 9.51668655,45.4917847 9.48,45.69 C9.48,45.83 9.48,45.98 9.41,46.25 C9.03,53.76 10.9,59.84 14.99,64.32 C19.68,69.46 27.27,72.39 36.99,72.79 L37.36,72.79 L41.93,72.79 L45.13,72.79 C54.8,72.39 62.39,69.46 67.13,64.32 C71.22,59.84 73.13,53.76 72.71,46.23 C72.71,45.98 72.66,45.83 72.64,45.69 C72.62,45.55 72.64,45.39 72.56,45.09 L72.56,44.85 L9.52,44.85 L9.55,45.09 Z M11.44,9.68 C12.5707657,9.8639229 13.7143768,9.95755188 14.86,9.96 C17.5876551,10.0271153 20.3135787,9.76862251 22.98,9.19 L22.98,17.04 L14.2,17.04 C13.6625395,14.4597435 12.731671,11.9774275 11.44,9.68 M22.98,33.4 L12.27,33.4 C13.3192458,30.9407637 14.0452946,28.3558952 14.43,25.71 L22.98,25.71 L22.98,33.4 Z M31.65,25.71 L40.65,25.71 L40.65,33.4 L31.65,33.4 L31.65,25.71 Z M31.65,8.5 C34.4833009,9.77018387 37.5454025,10.4506509 40.65,10.5 L40.65,17.07 L31.65,17.07 L31.65,8.5 Z M41.15,10.5 C42.0927222,10.4871624 43.034076,10.4237379 43.97,10.31 L43.97,33.43 L41.15,33.43 L41.15,10.5 Z M47.08,9.69 C48.1448712,9.39811004 49.1875259,9.03050742 50.2,8.59 L50.2,33.43 L47.08,33.43 L47.08,9.69 Z M53.31,7 L53.31,7 C54.299549,7.55569044 55.3290549,8.03701788 56.39,8.44 L56.39,33.44 L53.27,33.44 L53.31,7 Z M59.54,9.34 C60.5695262,9.55968443 61.6114442,9.71664003 62.66,9.81 L62.66,33.43 L59.52,33.43 L59.54,9.34 Z M65.77,9.97 L67.13,9.97 C68.2659309,9.96401168 69.3995568,9.86703484 70.52,9.68 C65.44,18.77 67.19,27.52 69.68,33.41 L65.68,33.41 L65.77,9.97 Z M11.63,33.58 L11.47,33.95 L70.47,33.95 L70.31,33.58 C67.74,27.7 65.82,18.74 71.23,9.47 L71.53,8.98 L70.96,9.09 C69.6811739,9.33503174 68.382089,9.45891355 67.08,9.46 C61.81,9.46 57.88,8.97 53.42,6.46 L53.29,6.39 L53.16,6.47 C45.6897215,11.1522688 36.2002785,11.1522688 28.73,6.47 L28.6,6.39 L28.46,6.46 C24.01,8.98 20.08,9.46 14.81,9.46 C13.5124366,9.4527085 12.2178175,9.33562409 10.94,9.11 L10.38,9.01 L10.67,9.5 C16.07,18.75 14.15,27.7 11.58,33.58 M33.49,37.08 L33.49,35.36 L27.65,35.36 L27.65,43.46 L29.41,43.46 L29.41,40.08 L31.79,40.08 L31.79,38.36 L29.41,38.36 L29.41,37.04 L33.49,37.08 Z M40.34,36.98 C40.921644,36.9464017 41.4647948,37.2714993 41.71,37.8 L41.71,37.87 L43.33,37.12 L43.33,37.04 C42.7995301,35.8752138 41.6077621,35.1561804 40.33,35.23 C38.21,35.23 36.72,36.95 36.72,39.41 C36.72,41.87 38.12,43.58 40.27,43.58 C41.5557068,43.6516801 42.751081,42.9185173 43.27,41.74 L43.27,41.68 L41.79,40.8 L41.79,40.87 C41.5588706,41.4791559 40.9714716,41.878747 40.32,41.87 C39.25,41.87 38.53,40.87 38.53,39.44 C38.53,38.01 39.21,37.01 40.31,37.01 M51.31,41.81 L49.31,41.81 L49.31,39.93 L51.31,39.93 C52.02,39.93 52.31,40.23 52.31,40.87 C52.31,41.51 51.95,41.81 51.31,41.81 M49.31,37.02 L51.24,37.02 C52.03,37.02 52.13,37.38 52.13,37.69 C52.13,38 51.86,38.36 51.32,38.36 L49.32,38.36 L49.31,37.02 Z M53.91,37.57 C53.91,36.21 52.91,35.39 51.31,35.39 L47.59,35.39 L47.59,43.49 L51.27,43.49 C53.09,43.49 54.18,42.49 54.18,40.84 C54.205157,40.1169078 53.8174439,39.4422871 53.18,39.1 C53.6639662,38.7423385 53.9437261,38.1716283 53.93,37.57 M97.87,57.8 L104.09,57.8 C107.84,57.8 109.770017,59.66 109.770017,63.12 C109.77574,65.4905137 108.308709,67.6153166 106.09,68.45 L101.23,68.45 L101.23,74.6 L97.87,74.6 L97.87,57.8 Z M104.98,65.41 C105.915981,64.9819088 106.486517,64.0163858 106.41,62.99 C106.462752,62.3797338 106.232939,61.7789457 105.786371,61.3596789 C105.339803,60.9404121 104.72573,60.7489057 104.12,60.84 L101.23,60.84 L101.23,65.41 L104.98,65.41 Z M112.04,57.8 L118.39,57.8 C122.04,57.8 124.04,59.53 124.04,62.8 C124.019812,65.0150817 122.653706,66.9949458 120.59,67.8 C121.541206,69.4980468 122.674557,71.0874217 123.97,72.54 L123.97,74.54 L121.4,74.54 C119.766589,72.5516527 118.342402,70.4002924 117.15,68.12 L115.4,68.12 L115.4,74.54 L112.04,74.54 L112.04,57.8 Z M119.13,65.14 C120.093427,64.8518036 120.736773,63.9445205 120.69,62.94 C120.721494,62.359703 120.49902,61.7944042 120.080476,61.3912199 C119.661932,60.9880356 119.088715,60.7868424 118.51,60.84 L115.4,60.84 L115.4,65.14 L119.13,65.14 Z M126.66,57.8 L137.31,57.8 L136.81,60.8 L130.02,60.8 L130.02,64.68 L136.17,64.68 L136.17,67.68 L130.02,67.68 L130.02,71.51 L137.02,71.51 L137.02,74.51 L126.62,74.51 L126.66,57.8 Z M140.02,57.8 L145.52,57.8 L147.52,66.87 C147.89,68.6 148.39,71.78 148.39,71.78 L148.52,71.78 C148.52,71.78 149.01,68.6 149.38,66.87 L151.38,57.8 L156.88,57.8 L156.88,74.6 L153.65,74.6 L153.65,66.18 C153.65,64.72 153.75,60.5 153.75,60.5 L153.52,60.5 C153.52,60.5 152.8,63.84 152.43,65.5 L150.35,74.56 L146.65,74.56 L144.52,65.47 C144.14,63.84 143.43,60.47 143.43,60.47 L143.18,60.47 C143.18,60.47 143.26,64.69 143.26,66.15 L143.26,74.5 L140.02,74.5 L140.02,57.8 Z M161.26,71.96 L161.26,60.38 L159.58,60.08 L159.58,57.73 L166.3,57.73 L166.3,60.08 L164.62,60.38 L164.62,71.89 L166.3,72.18 L166.3,74.53 L159.58,74.53 L159.58,72.18 L161.26,71.96 Z M168.89,57.8 L172.25,57.8 L172.25,68.89 C172.25,71.19 173.01,71.89 175.09,71.89 C176.177268,71.9251786 177.241293,71.5705035 178.09,70.89 L178.09,57.73 L181.44,57.73 L181.44,74.53 L178.83,74.53 L178.43,73 L178.33,73 C177.137214,74.0611179 175.606054,74.6636578 174.01,74.7 C170.58,74.7 168.9,73.15 168.9,69 L168.89,57.8 Z M184.89,57.8 L190.4,57.8 L192.4,66.87 C192.77,68.6 193.27,71.78 193.27,71.78 L193.42,71.78 C193.42,71.78 193.91,68.6 194.28,66.87 L196.28,57.8 L201.78,57.8 L201.78,74.6 L198.52,74.6 L198.52,66.18 C198.52,64.72 198.62,60.5 198.62,60.5 L198.34,60.5 C198.34,60.5 197.63,63.84 197.26,65.5 L195.18,74.56 L191.52,74.56 L189.44,65.5 C189.07,63.87 188.36,60.5 188.36,60.5 L188.11,60.5 C188.11,60.5 188.19,64.72 188.19,66.18 L188.19,74.53 L184.92,74.53 L184.89,57.8 Z M210.13,57.8 L215.64,57.8 L217.64,66.87 C218.01,68.6 218.51,71.78 218.51,71.78 L218.65,71.78 C218.65,71.78 219.15,68.6 219.52,66.87 L221.52,57.8 L227.03,57.8 L227.03,74.6 L223.8,74.6 L223.8,66.18 C223.8,64.72 223.89,60.5 223.89,60.5 L223.62,60.5 C223.62,60.5 222.91,63.84 222.54,65.5 L220.46,74.56 L216.76,74.56 L214.68,65.5 C214.31,63.87 213.6,60.5 213.6,60.5 L213.35,60.5 C213.35,60.5 213.42,64.72 213.42,66.18 L213.42,74.53 L210.19,74.53 L210.13,57.8 Z M230.43,57.8 L241.07,57.8 L240.58,60.8 L233.79,60.8 L233.79,64.68 L239.94,64.68 L239.94,67.68 L233.79,67.68 L233.79,71.51 L240.79,71.51 L240.79,74.51 L230.4,74.51 L230.43,57.8 Z M243.79,57.8 L249.29,57.8 L251.29,66.87 C251.66,68.6 252.15,71.78 252.15,71.78 L252.3,71.78 C252.3,71.78 252.8,68.6 253.17,66.87 L255.17,57.8 L260.68,57.8 L260.68,74.6 L257.44,74.6 L257.44,66.18 C257.44,64.72 257.54,60.5 257.54,60.5 L257.27,60.5 C257.27,60.5 256.56,63.84 256.18,65.5 L254.11,74.56 L250.41,74.56 L248.33,65.5 C247.96,63.87 247.24,60.5 247.24,60.5 L247,60.5 C247,60.5 247.07,64.72 247.07,66.18 L247.07,74.53 L243.84,74.53 L243.79,57.8 Z M264.08,57.8 L270.16,57.8 C274.16,57.8 275.59,59.63 275.59,62.4 C275.637844,63.8908843 274.896911,65.2967566 273.64,66.1 L273.64,66.1 C274.959626,66.8399962 275.794619,68.2177339 275.84,69.73 C275.84,72.73 274.19,74.55 270.38,74.55 L264.08,74.55 L264.08,57.8 Z M267.35,60.69 L267.35,64.69 L271,64.69 C271.789017,64.3354811 272.300266,63.5549491 272.31,62.69 C272.348699,62.1546599 272.147808,61.6297545 271.761578,61.2570433 C271.375349,60.884332 270.843622,60.7022605 270.31,60.76 L267.35,60.69 Z M267.35,67.51 L267.35,71.68 L270.52,71.68 C271.088254,71.7267026 271.648079,71.5197518 272.049316,71.1146561 C272.450554,70.7095604 272.652138,70.1477814 272.6,69.58 C272.570359,68.6442164 271.983474,67.8170639 271.11,67.48 L267.35,67.51 Z M278.56,57.8 L289.2,57.8 L288.71,60.8 L281.92,60.8 L281.92,64.68 L288.06,64.68 L288.06,67.68 L281.92,67.68 L281.92,71.51 L288.92,71.51 L288.92,74.51 L278.53,74.51 L278.56,57.8 Z M291.92,57.8 L298.26,57.8 C301.92,57.8 303.92,59.53 303.92,62.8 C303.898192,65.0175702 302.527636,66.9981427 300.46,67.8 C301.415142,69.4955479 302.548203,71.0845144 303.84,72.54 L303.84,74.54 L301.28,74.54 C299.646589,72.5516527 298.222402,70.4002924 297.03,68.12 L295.27,68.12 L295.27,74.54 L291.92,74.54 L291.92,57.8 Z M299,65.14 C299.963427,64.8518036 300.606773,63.9445205 300.56,62.94 C300.59113,62.361604 300.369971,61.79812 299.953733,61.3953089 C299.537495,60.9924978 298.967065,60.7899281 298.39,60.84 L295.27,60.84 L295.27,65.14 L299,65.14 Z M305.79,70.87 L308.41,70.87 C308.41,70.87 308.91,71.87 310.98,71.87 C313.05,71.87 313.72,71.13 313.72,70 C313.72,69.13 313.23,68.42 311.72,67.9 L310.21,67.35 C307.08,66.22 305.92,64.91 305.92,62.35 C305.92,59.35 308.07,57.6098451 311.84,57.6098451 C313.489362,57.6012481 315.119579,57.9635185 316.61,58.67 L316.61,61.51 L313.97,61.51 C313.97,61.51 313.67,60.51 311.67,60.51 C309.97,60.51 309.23,61.3 309.23,62.31 C309.23,63.32 309.77,63.67 311.23,64.22 L312.73,64.76 C316.26,66.04 316.93,67.53 316.93,69.76 C316.93,72.92 315.15,74.76 310.78,74.76 C309.033639,74.7692777 307.303049,74.4292799 305.69,73.76 L305.79,70.87 Z M332.19,74.6 L328.83,74.6 L328.83,67.68 L323.15,67.68 L323.15,74.55 L319.8,74.55 L319.8,57.75 L323.15,57.75 L323.15,64.68 L328.83,64.68 L328.83,57.78 L332.19,57.78 L332.19,74.6 Z M336.59,71.96 L336.59,60.38 L334.91,60.08 L334.91,57.73 L341.63,57.73 L341.63,60.08 L339.95,60.38 L339.95,71.89 L341.63,72.18 L341.63,74.53 L334.91,74.53 L334.91,72.18 L336.59,71.96 Z M344.34,57.8 L350.57,57.8 C354.32,57.8 356.250017,59.66 356.250017,63.12 C356.25574,65.4905137 354.788709,67.6153166 352.57,68.45 L347.7,68.45 L347.7,74.6 L344.34,74.6 L344.34,57.8 Z M351.45,65.41 C352.387862,64.9827458 352.961873,64.0180886 352.89,62.99 C352.943407,62.3777105 352.712325,61.7748658 352.263333,61.3551556 C351.814341,60.9354453 351.197303,60.745483 350.59,60.84 L347.7,60.84 L347.7,65.41 L351.45,65.41 Z M97.45,23.8 C97.45,13.34 102.62,8.63 112.09,8.63 C120.23,8.63 123.95,13.05 123.95,13.05 L123.95,19.21 L117.52,19.21 C117.52,19.21 117.05,15.66 112.17,15.66 C107,15.66 105.37,18.22 105.37,23.66 L105.37,34.01 C105.37,39.41 107,42.01 112.17,42.01 C117.05,42.01 117.52,38.46 117.52,38.46 L123.97,38.46 L123.97,44.62 C123.97,44.62 120.25,49.04 112.11,49.04 C102.64,49.04 97.47,44.33 97.47,33.87 L97.45,23.8 Z M128.65,9.04 L136.52,9.04 L136.52,35.13 C136.52,40.53 138.32,42.13 143.2,42.13 C145.742544,42.197156 148.225314,41.3530145 150.2,39.75 L150.2,8.97 L158.1,8.97 L158.1,48.48 L151.94,48.48 L151.01,44.88 L150.78,44.88 C147.970924,47.3760525 144.366823,48.7935943 140.61,48.88 C132.53,48.88 128.61,45.22 128.61,35.45 L128.65,9.04 Z M165.15,9.04 L173.05,9.04 L173.05,41.4 L189.05,41.4 L187.88,48.55 L165.15,48.55 L165.15,9.04 Z M191.15,9.04 L216.15,9.04 L214.99,16.19 L198.99,16.19 L198.99,25.25 L213.52,25.25 L213.52,32.4 L199.02,32.4 L199.02,41.4 L215.58,41.4 L215.58,48.55 L191.12,48.55 L191.15,9.04 Z M221.42,9.04 L236.36,9.04 C244.96,9.04 249.66,13.11 249.66,20.78 C249.66,29.78 241.53,32.63 241.53,32.63 C241.53,32.63 245.42,39.63 249.53,43.79 L249.53,48.55 L243.53,48.55 C238.59,43.15 233.53,33.44 233.53,33.44 L229.41,33.44 L229.41,48.48 L221.5,48.48 L221.42,9.04 Z M238.1,26.3 C240.356499,25.6133181 241.86217,23.4864556 241.76,21.13 C241.76,17.99 239.84,16.19 236.65,16.19 L229.33,16.19 L229.33,26.3 L238.1,26.3 Z M252.89,39.68 L259.05,39.68 C259.05,39.68 260.21,42.06 265.05,42.06 C269.76,42.06 271.5,40.32 271.5,37.64 C271.5,35.64 270.34,33.92 266.91,32.7 L263.37,31.43 C255.99,28.75 253.26,25.67 253.26,19.75 C253.26,12.6 258.26,8.58960022 267.2,8.58960022 C271.077267,8.56839185 274.909319,9.42299771 278.41,11.09 L278.41,17.77 L272.2,17.77 C272.2,17.77 271.5,15.33 266.79,15.33 C262.79,15.33 261.04,17.19 261.04,19.57 C261.04,21.95 262.32,22.77 265.86,24.05 L269.41,25.33 C277.72,28.33 279.29,31.83 279.29,37.06 C279.29,44.5 275.1,48.8 264.82,48.8 C260.697142,48.7966904 256.616771,47.967015 252.82,46.36 L252.89,39.68 Z" id="Shape"></path>
        </g>
    </g>
</svg>